# xmcd CD database file
#
# Track frame offsets:
#	150
#	15767
#	30478
#	42566
#	56033
#	70111
#	87342
#	101636
#	114108
#	126377
#	139456
#	151886
#	164219
#	179857
#
# Disc length: 2573 seconds
#
# Revision: 0
# Processed by: cddbd v1.5.1PL2 Copyright (c) Steve Scherf et al.
# Submitted via: CDex 1.51
#
DISCID=c40a0b0e
DTITLE=Nat King Cole - Hallmark - Nat King Cole: Let There Be Love
DYEAR=2004
DGENRE=Jazz
TTITLE0=Unforgettable
TTITLE1=Mona Lisa
TTITLE2=Walkin' My Baby Back Home
TTITLE3=Stay as Sweet as You Are
TTITLE4=It's All in the Game
TTITLE5=The Very Thought of You
TTITLE6=When I Fall in Love
TTITLE7=Let There Be Love
TTITLE8=You'll Never Know
TTITLE9=Smile
TTITLE10=Pretend
TTITLE11=The Party's Over
TTITLE12=The More I See You
TTITLE13=Answer Me, My Love
EXTD=YEAR: 2004
EXTT0=
EXTT1=
EXTT2=
EXTT3=
EXTT4=
EXTT5=
EXTT6=
EXTT7=
EXTT8=
EXTT9=
EXTT10=
EXTT11=
EXTT12=
EXTT13=
PLAYORDER=
